<svg width="503" height="186" viewBox="0 0 503 186" fill="none" xmlns="http://www.w3.org/2000/svg">
<path d="M182.12 148L193.512 54.56H215.4L233.576 117.408H233.832L252.008 54.56H273.896L285.288 148H267.24L261.096 80.416H260.84L242.92 137.76H224.488L206.568 80.416H206.312L200.168 148H182.12ZM290.503 148V82.72H308.423V148H290.503ZM299.463 73.632C296.135 73.632 293.49 72.736 291.527 70.944C289.564 69.0667 288.583 66.5067 288.583 63.264C288.583 60.0213 289.564 57.504 291.527 55.712C293.49 53.8347 296.135 52.896 299.463 52.896C302.791 52.896 305.436 53.8347 307.399 55.712C309.362 57.504 310.343 60.0213 310.343 63.264C310.343 66.5067 309.362 69.0667 307.399 70.944C305.436 72.736 302.791 73.632 299.463 73.632ZM317.813 148V54.56H335.733V148H317.813ZM345.213 148V82.72H363.133V148H345.213ZM354.173 73.632C350.845 73.632 348.2 72.736 346.237 70.944C344.274 69.0667 343.293 66.5067 343.293 63.264C343.293 60.0213 344.274 57.504 346.237 55.712C348.2 53.8347 350.845 52.896 354.173 52.896C357.501 52.896 360.146 53.8347 362.109 55.712C364.072 57.504 365.053 60.0213 365.053 63.264C365.053 66.5067 364.072 69.0667 362.109 70.944C360.146 72.736 357.501 73.632 354.173 73.632ZM388.127 149.28C381.556 149.28 376.351 147.445 372.511 143.776C368.756 140.107 366.879 135.2 366.879 129.056C366.879 121.376 369.866 115.445 375.839 111.264C381.898 107.083 390.474 104.992 401.567 104.992H410.399C410.399 100.896 409.332 97.9947 407.199 96.288C405.066 94.5813 401.396 93.728 396.191 93.728C392.01 93.728 387.914 94.24 383.903 95.264C379.978 96.288 375.967 97.9093 371.871 100.128L369.823 86.304C374.09 84.1707 378.527 82.6347 383.135 81.696C387.828 80.672 392.948 80.16 398.495 80.16C405.578 80.16 411.252 81.0133 415.519 82.72C419.871 84.4267 423.028 87.2 424.991 91.04C426.954 94.7947 427.935 99.7867 427.935 106.016V148H411.167L411.039 140.32H410.783C408.394 143.051 405.108 145.227 400.927 146.848C396.746 148.469 392.479 149.28 388.127 149.28ZM394.527 135.968C397.514 135.968 400.202 135.456 402.591 134.432C404.98 133.408 406.858 132 408.223 130.208C409.674 128.331 410.399 126.283 410.399 124.064V116.512H404.127C397.215 116.512 392.052 117.408 388.639 119.2C385.226 120.907 383.519 123.595 383.519 127.264C383.519 129.995 384.458 132.128 386.335 133.664C388.298 135.2 391.028 135.968 394.527 135.968ZM432.357 148V81.44H449.125L449.253 90.4H449.509C452.496 86.816 455.781 84.2133 459.365 82.592C463.034 80.9707 467.258 80.16 472.037 80.16C480.144 80.16 485.989 82.5067 489.573 87.2C493.242 91.8933 495.077 99.36 495.077 109.6V148H477.541V113.056C477.541 106.741 476.602 102.091 474.725 99.104C472.933 96.1173 470.032 94.624 466.021 94.624C463.034 94.624 460.304 95.392 457.829 96.928C455.44 98.3787 453.52 100.341 452.069 102.816C450.704 105.205 450.021 107.893 450.021 110.88V148H432.357Z" fill="#AD1BF2"/>
<path d="M150.608 149.28C145.147 149.28 140.24 148.768 135.888 147.744C131.621 146.72 127.397 145.184 123.216 143.136L127.44 128.16C131.707 130.208 135.547 131.701 138.96 132.64C142.373 133.493 145.957 133.92 149.712 133.92C156.88 133.92 162.341 132.469 166.096 129.568C169.936 126.581 171.856 122.315 171.856 116.768C171.856 112.075 170.448 108.533 167.632 106.144C164.901 103.669 160.933 102.432 155.728 102.432C152.741 102.432 150.224 102.944 148.176 103.968C146.213 104.907 144.293 106.571 142.416 108.96H125.776L128.72 54.56H185.808V69.92H144.848L143.696 90.912H143.952C146.427 89.8027 148.816 88.992 151.12 88.48C153.424 87.968 155.984 87.712 158.8 87.712C168.699 87.712 176.379 90.3147 181.84 95.52C187.387 100.725 190.16 108.064 190.16 117.536C190.16 127.776 186.747 135.627 179.92 141.088C173.179 146.549 163.408 149.28 150.608 149.28Z" fill="#AD1BF2"/>
<path d="M98.088 150.28C90.408 150.28 83.9227 148.915 78.632 146.184C73.3413 143.453 69.3307 139.443 66.6 134.152C63.9547 128.776 62.632 122.205 62.632 114.44C62.632 102.664 64.8933 92.424 69.416 83.72C74.024 74.9307 80.5947 68.0187 89.128 62.984C97.6613 57.9493 107.816 55.0907 119.592 54.408L122.28 67.336C111.699 67.848 103.08 70.1093 96.424 74.12C89.8533 78.1307 84.9893 83.976 81.832 91.656L82.088 91.784C84.904 89.9067 87.976 88.5413 91.304 87.688C94.632 86.7493 98.216 86.28 102.056 86.28C108.541 86.28 114.173 87.56 118.952 90.12C123.731 92.5947 127.357 96.1787 129.832 100.872C132.392 105.48 133.672 111.069 133.672 117.64C133.672 124.467 132.264 130.312 129.448 135.176C126.632 140.04 122.536 143.795 117.16 146.44C111.869 149 105.512 150.28 98.088 150.28ZM98.088 136.584C104.403 136.584 109.267 134.92 112.68 131.592C116.093 128.264 117.8 123.699 117.8 117.896C117.8 111.923 116.093 107.315 112.68 104.072C109.267 100.829 104.403 99.208 98.088 99.208C93.992 99.208 90.4933 99.9333 87.592 101.384C84.6907 102.749 82.472 104.797 80.936 107.528C79.4 110.259 78.632 113.544 78.632 117.384C78.632 120.712 79.272 123.827 80.552 126.728C81.832 129.629 83.9227 132.019 86.824 133.896C89.7253 135.688 93.48 136.584 98.088 136.584Z" fill="#AD1BF2"/>
<path d="M36.992 149.28C31.4453 149.28 26.0693 148.64 20.864 147.36C15.6587 146.08 10.2827 144.075 4.736 141.344L9.728 126.752C14.2507 129.141 18.688 130.933 23.04 132.128C27.392 133.323 31.744 133.92 36.096 133.92C42.3253 133.92 47.104 132.768 50.432 130.464C53.76 128.075 55.424 124.704 55.424 120.352C55.424 115.659 53.2053 112.331 48.768 110.368C44.416 108.405 37.0347 107.424 26.624 107.424H20.992V92.576H26.624C35.4987 92.576 42.3253 91.3813 47.104 88.992C51.8827 86.6027 54.272 83.232 54.272 78.88C54.272 75.4667 52.8213 72.9067 49.92 71.2C47.0187 69.4933 42.6667 68.64 36.864 68.64C34.2187 68.64 31.6587 68.896 29.184 69.408C26.7093 69.8347 24.0213 70.56 21.12 71.584C18.304 72.5227 14.9333 73.888 11.008 75.68L6.912 61.088C10.9227 59.1253 14.592 57.5893 17.92 56.48C21.3333 55.3707 24.704 54.56 28.032 54.048C31.36 53.536 34.944 53.28 38.784 53.28C49.7067 53.28 57.984 55.2 63.616 59.04C69.3333 62.7947 72.192 68.3413 72.192 75.68C72.192 81.312 70.4427 86.1333 66.944 90.144C63.5307 94.0693 58.4533 96.928 51.712 98.72V98.976C58.9653 99.9147 64.4267 102.304 68.096 106.144C71.8507 109.899 73.728 114.976 73.728 121.376C73.728 130.08 70.4853 136.907 64 141.856C57.5147 146.805 48.512 149.28 36.992 149.28Z" fill="#AD1BF2"/>
</svg>